<svg xmlns="http://www.w3.org/2000/svg" xmlns:xlink="http://www.w3.org/1999/xlink" version="1.1" x="0px" y="0px" viewBox="0 0 48 60" style="enable-background:new 0 0 48 48;" xml:space="preserve"><style type="text/css">
	.st0{stroke:#000000;stroke-width:0.5;stroke-miterlimit:10;}
	.st1{fill:none;stroke:#000000;stroke-width:2;stroke-miterlimit:10;}
</style><g><path d="M42.3,45h-4.8V33.3c5.4-0.7,8-6.5,6.6-11.5l-2-7c-0.1-0.4-0.5-0.7-1-0.7h-9.4c-0.4,0-0.8,0.3-1,0.7l-2,7   c-1.4,5,1.3,10.8,6.6,11.5V45h-4.8c-0.6,0-1,0.4-1,1s0.4,1,1,1h11.6c0.6,0,1-0.4,1-1S42.8,45,42.3,45z M30.8,22.3l1.8-6.3h7.9   l1.8,6.3c1.2,4.2-1.1,9-5.7,9C31.9,31.3,29.6,26.5,30.8,22.3z"/><path d="M17.8,16.5c-1.1-0.8-1.8-2-1.8-3.4V4c0-2.2-1.8-4-4-4C9.8,0,8,1.8,8,4v9.1c0,1.3-0.7,2.6-1.8,3.4c-1.7,1.1-2.7,3-2.7,5   v20.3c0,3.4,2.8,6.2,6.2,6.2h4.5c3.4,0,6.2-2.8,6.2-6.2V21.5C20.5,19.5,19.5,17.6,17.8,16.5z M5.5,30.5h12.9v5.8H5.5V30.5z    M7.3,18.1c1.7-1.1,2.6-3,2.6-5V4c0-1.1,0.9-2,2-2s2,0.9,2,2v9.1c0,2,1,3.9,2.7,5c1.1,0.8,1.8,2,1.8,3.4v7H5.5v-7   C5.5,20.2,6.2,18.9,7.3,18.1z M14.2,46H9.8c-2.3,0-4.2-1.9-4.2-4.2v-3.4h12.9v3.4C18.5,44.1,16.6,46,14.2,46z"/></g><text x="0" y="63" fill="#000000" font-size="5px" font-weight="bold" font-family="'Helvetica Neue', Helvetica, Arial-Unicode, Arial, Sans-serif">Created by Vectors Market</text><text x="0" y="68" fill="#000000" font-size="5px" font-weight="bold" font-family="'Helvetica Neue', Helvetica, Arial-Unicode, Arial, Sans-serif">from the Noun Project</text></svg>
