<svg xmlns:dc="http://purl.org/dc/elements/1.1/" xmlns:cc="http://creativecommons.org/ns#" xmlns:rdf="http://www.w3.org/1999/02/22-rdf-syntax-ns#" xmlns:svg="http://www.w3.org/2000/svg" xmlns="http://www.w3.org/2000/svg" xmlns:sodipodi="http://sodipodi.sourceforge.net/DTD/sodipodi-0.dtd" xmlns:inkscape="http://www.inkscape.org/namespaces/inkscape" version="1.1" x="0px" y="0px" viewBox="0 0 100 125"><g transform="translate(0,-952.36218)"><path style="font-size:medium;font-style:normal;font-variant:normal;font-weight:normal;font-stretch:normal;text-indent:0;text-align:start;text-decoration:none;line-height:normal;letter-spacing:normal;word-spacing:normal;text-transform:none;direction:ltr;block-progression:tb;writing-mode:lr-tb;text-anchor:start;baseline-shift:baseline;opacity:1;color:#000000;fill:#000000;fill-opacity:1;stroke:none;stroke-width:4.00000047999999970;marker:none;visibility:visible;display:inline;overflow:visible;enable-background:accumulate;font-family:Sans;-inkscape-font-specification:Sans" d="M 34.78125 2.96875 A 2.0002002 2.0002002 0 0 0 33 5 C 33 8.36758 35.202153 10.40047 36.71875 11.65625 C 37.477049 12.28414 38.107119 12.79276 38.46875 13.28125 C 38.830381 13.76974 39 14.19371 39 15 C 39 15.80629 38.830381 16.19901 38.46875 16.6875 C 38.107119 17.17599 37.477049 17.68461 36.71875 18.3125 C 35.202153 19.56828 33 21.63242 33 25 A 2.0002002 2.0002002 0 1 0 37 25 C 37 23.17228 37.797847 22.63454 39.28125 21.40625 C 40.022952 20.7921 40.892881 20.09366 41.65625 19.0625 C 42.419619 18.03134 43 16.62791 43 15 C 43 13.37209 42.419619 11.93741 41.65625 10.90625 C 40.892881 9.87509 40.022952 9.17665 39.28125 8.5625 C 37.797847 7.33421 37 6.82772 37 5 A 2.0002002 2.0002002 0 0 0 34.78125 2.96875 z M 46.78125 2.96875 A 2.0002002 2.0002002 0 0 0 45 5 C 45 8.36758 47.202153 10.40047 48.71875 11.65625 C 49.477049 12.28414 50.107119 12.79276 50.46875 13.28125 C 50.830381 13.76974 51 14.19371 51 15 C 51 15.80629 50.830381 16.19901 50.46875 16.6875 C 50.107119 17.17599 49.477049 17.68461 48.71875 18.3125 C 47.202153 19.56828 45 21.63242 45 25 A 2.0002002 2.0002002 0 1 0 49 25 C 49 23.17228 49.797847 22.63454 51.28125 21.40625 C 52.022952 20.7921 52.892881 20.09366 53.65625 19.0625 C 54.419619 18.03134 55 16.62791 55 15 C 55 13.37209 54.419619 11.93741 53.65625 10.90625 C 52.892881 9.87509 52.022952 9.17665 51.28125 8.5625 C 49.797847 7.33421 49 6.82772 49 5 A 2.0002002 2.0002002 0 0 0 46.78125 2.96875 z M 13.8125 30 A 2.0002002 2.0002002 0 0 0 12 32 L 12 36.03125 A 2.0002002 2.0002002 0 1 0 16 36.03125 L 16 34 L 72 34 L 72 50.0625 C 72 65.5578 59.547119 78 44 78 C 28.452902 78 16 65.5578 16 50.0625 L 16 44.125 A 2.0002002 2.0002002 0 1 0 12 44.125 L 12 50.0625 C 12 64.953591 22.190953 77.457574 36 81 L 8 81 A 2.0002002 2.0002002 0 0 0 7.8125 81 A 2.0002002 2.0002002 0 0 0 6 83 L 6 85.1875 C 6 91.654 11.112691 97 17.46875 97 L 70.53125 97 C 76.887316 97 82 91.654 82 85.1875 L 82 83 A 2.0002002 2.0002002 0 0 0 80 81 L 52 81 C 60.035433 78.938676 66.835529 73.833394 71.125 67 L 79.9375 67 C 87.686109 67 94 60.7293 94 53 C 94 45.27054 87.686085 39 79.9375 39 L 76 39 L 76 32 A 2.0002002 2.0002002 0 0 0 74 30 L 14 30 A 2.0002002 2.0002002 0 0 0 13.8125 30 z M 76 43 L 79.9375 43 C 85.550877 43 90 47.42838 90 53 C 90 58.5714 85.550853 63 79.9375 63 L 73.28125 63 C 75.034008 59.048244 76 54.66513 76 50.0625 L 76 43 z M 10 85 L 78 85 L 78 85.1875 C 78 89.575 74.671924 93 70.53125 93 L 17.46875 93 C 13.328089 93 10 89.575 10 85.1875 L 10 85 z " transform="translate(0,952.36218)"/></g><text x="0" y="115" fill="#000000" font-size="5px" font-weight="bold" font-family="'Helvetica Neue', Helvetica, Arial-Unicode, Arial, Sans-serif">Created by pictohaven</text><text x="0" y="120" fill="#000000" font-size="5px" font-weight="bold" font-family="'Helvetica Neue', Helvetica, Arial-Unicode, Arial, Sans-serif">from the Noun Project</text></svg>