<svg xmlns="http://www.w3.org/2000/svg" xmlns:xlink="http://www.w3.org/1999/xlink" version="1.1" x="0px" y="0px" viewBox="0 0 91 113.75" enable-background="new 0 0 91 91" xml:space="preserve"><g><path d="M32.697,68.305c0.987,0.013,1.974-0.201,2.931-0.658c3.7-1.766,5.203-4.415,6.656-6.979   c1.431-2.526,2.911-5.138,6.714-7.997c5.334-4.008,12.054-3.558,14.462-2.422c0.128,0.06,0.478,0.207,0.524,0.223   c2.284,0.869,4.854,0.553,6.979-0.888c3.699-2.503,4.199-7.424,1.272-12.532C68.225,30.044,59.2,25.121,51.023,29.02   c-3.462,1.649-6.346,4.256-8.791,7.946c-3.98-0.359-8.078,0.097-11.949,1.942c-8.969,4.276-9.974,14.62-6.369,22.185   C26.089,65.651,29.384,68.261,32.697,68.305z M52.925,33.007c6.444-3.078,12.936,1.794,15.479,6.238   c0.463,0.811,2.65,4.945,0.083,6.681c-0.909,0.616-1.983,0.765-2.921,0.419c-0.266-0.133-0.725-0.427-1.357-0.817   c-3-1.852-9.573-5.913-17.126-7.745C48.789,35.619,50.691,34.071,52.925,33.007z M32.185,42.896   c2.509-1.198,5.188-1.659,7.884-1.624c5.295,0.068,10.651,2.052,14.897,4.126c-2.884,0.535-5.901,1.696-8.622,3.743   c-4.539,3.41-6.406,6.701-7.905,9.348c-1.365,2.411-2.269,4.003-4.711,5.17c-1.968,0.947-4.429-1.535-5.825-4.468   C25.677,54.523,24.981,46.33,32.185,42.896z"/><path d="M10.959,15.026c0.12,0.158,0.238,0.313,0.358,0.468c-5.653,21.073-5.866,40.735-0.606,56.879   c0.048,0.146,0.13,0.27,0.205,0.397c-0.037,0.056-0.072,0.113-0.108,0.168c-2.144,3.299-3.838,5.904-5.254,14.677   c-0.113,0.688,0.108,1.39,0.594,1.892c0.412,0.423,0.974,0.662,1.558,0.669c0.104,0.002,0.209-0.005,0.316-0.02   c25.424-3.344,49.044-3.395,74.341-0.164c1.188,0.172,2.309-0.696,2.469-1.906c0.944-7.229,0.023-10.752-4.215-16.177   c3.953-20.879,4.13-38.142,0.537-55.782c-0.07-0.354-0.23-0.664-0.443-0.926c2.023-2.732,4.039-6.072,4.898-11.705   c0.104-0.688-0.12-1.383-0.606-1.879c-0.487-0.496-1.181-0.743-1.866-0.644C57.704,4.317,34.083,4.368,8.798,1.135   C7.598,0.97,6.486,1.832,6.326,3.041C5.667,8.098,8.48,11.778,10.959,15.026z M80.621,5.746c-1.047,3.744-2.779,5.981-4.595,8.322   c-1.901,2.453-3.866,4.992-4.687,9.049c-0.242,1.195,0.529,2.364,1.726,2.603c1.185,0.245,2.362-0.529,2.603-1.724   c0.331-1.634,0.922-2.943,1.658-4.154c2.717,15.077,2.586,30.101-0.429,47.708c-0.823-0.821-2.141-0.889-3.018-0.111   c-0.913,0.812-0.995,2.209-0.186,3.12c1.035,1.166,1.923,2.196,2.699,3.142c0.103,0.162,0.223,0.311,0.362,0.444   c3.5,4.356,4.29,6.771,3.932,11.188c-23.846-2.875-46.309-2.856-70.244,0.066c0.343-1.685,0.702-3.008,1.079-4.147l3.671-0.477   c1.209-0.154,2.064-1.262,1.91-2.47c-0.152-1.21-1.268-2.06-2.47-1.912l-0.864,0.111c0.238-0.381,0.483-0.764,0.742-1.159   c0.711-1.098,1.519-2.339,2.395-3.962c0.579-1.076,0.177-2.415-0.896-2.993c-0.617-0.33-1.305-0.313-1.901-0.059   c-3.841-13.736-3.689-30.031,0.431-47.538c0.349,0.947,0.575,1.935,0.584,3c0.01,1.205,0.98,2.172,2.179,2.188   c0.016,0,0.032,0,0.05,0c1.221-0.01,2.201-1.01,2.188-2.229c-0.032-3.546-2.952-8.808-2.952-8.808   c0.082,0.011,0.166,0.016,0.248,0.017c1.11,0.015,2.076-0.808,2.216-1.937c0.152-1.21-0.707-2.312-1.917-2.464l-4.057-0.514   c-0.104-0.013-0.207-0.01-0.311-0.012c-0.953-1.381-1.698-2.739-1.987-4.205C34.477,8.671,56.822,8.644,80.621,5.746z"/><path d="M25.837,16.066c3.615,0.415,6.663,0.722,9.313,0.938c0.05,0.003,0.104,0.006,0.152,0.006   c1.152,0.015,2.134-0.863,2.229-2.026c0.099-1.217-0.807-2.284-2.021-2.383c-2.604-0.211-5.603-0.514-9.173-0.921   c-1.192-0.134-2.307,0.73-2.444,1.943C23.754,14.833,24.625,15.927,25.837,16.066z"/><path d="M44.577,17.474c0.002,0,0.004,0,0.004,0c3.126,0.035,6.138-0.066,9.473-0.318c1.216-0.094,2.127-1.155,2.036-2.371   c-0.093-1.216-1.183-2.143-2.37-2.037c-3.206,0.244-6.094,0.342-9.09,0.31c-1.221-0.014-2.219,0.964-2.233,2.184   C42.383,16.461,43.358,17.458,44.577,17.474z"/><path d="M63.097,16.21c0.102,0.001,0.201-0.006,0.302-0.016c1.296-0.161,2.648-0.333,4.075-0.521   c1.211-0.158,2.063-1.268,1.904-2.477c-0.156-1.211-1.272-2.064-2.477-1.904c-1.416,0.186-2.757,0.358-4.043,0.515   c-1.211,0.15-2.072,1.252-1.922,2.464C61.073,15.381,62.01,16.196,63.097,16.21z"/><path d="M68.008,76.111c-1.181-0.146-2.31,0.726-2.451,1.937c-0.142,1.212,0.726,2.311,1.938,2.451   c1.309,0.153,2.653,0.318,4.039,0.494c0.086,0.013,0.17,0.019,0.254,0.019c1.108,0.015,2.073-0.804,2.216-1.928   c0.155-1.211-0.699-2.319-1.911-2.47C70.693,76.433,69.331,76.267,68.008,76.111z"/><path d="M45.157,74.373l-1.448-0.025c-2.113-0.026-4.153-0.015-6.231,0.041c-1.219,0.032-2.183,1.045-2.15,2.266   c0.032,1.191,0.999,2.134,2.177,2.15c0.03,0,0.06,0,0.088-0.002c2.022-0.052,4.004-0.065,6.059-0.039l1.404,0.023   c0.008,0.001,0.016,0.001,0.022,0.001c1.208,0.016,2.209-0.944,2.236-2.156C47.343,75.411,46.376,74.4,45.157,74.373z"/><path d="M22.407,79.891c0.092,0.001,0.182-0.004,0.273-0.015c2.668-0.295,5.109-0.521,7.458-0.694   c1.218-0.09,2.13-1.148,2.04-2.365c-0.09-1.217-1.163-2.142-2.365-2.04c-2.401,0.178-4.894,0.409-7.616,0.709   c-1.214,0.132-2.087,1.227-1.955,2.438C20.367,79.043,21.309,79.876,22.407,79.891z"/><path d="M60.424,75.304c-2.64-0.25-5.201-0.45-7.618-0.602c-1.198-0.072-2.266,0.849-2.342,2.066   c-0.077,1.219,0.85,2.267,2.066,2.343c2.372,0.148,4.886,0.346,7.479,0.59c0.061,0.008,0.12,0.01,0.182,0.01   c1.137,0.015,2.115-0.848,2.226-2C62.53,76.496,61.64,75.418,60.424,75.304z"/></g><text x="0" y="106" fill="#000000" font-size="5px" font-weight="bold" font-family="'Helvetica Neue', Helvetica, Arial-Unicode, Arial, Sans-serif">Created by BomSymbols</text><text x="0" y="111" fill="#000000" font-size="5px" font-weight="bold" font-family="'Helvetica Neue', Helvetica, Arial-Unicode, Arial, Sans-serif">from the Noun Project</text></svg>